<svg id="Layer_1" data-name="Layer 1" xmlns="http://www.w3.org/2000/svg" viewBox="0 0 19.76 19.39"><path d="M19,.27A1.69,1.69,0,0,0,18.39,0a1.58,1.58,0,0,0-.65,0,1.67,1.67,0,0,0-.6.25,1.83,1.83,0,0,0-.45.47L7.35,15.15,2.8,10.94a1.68,1.68,0,0,0-.56-.34,1.72,1.72,0,0,0-.64-.1A1.67,1.67,0,0,0,.44,11,1.63,1.63,0,0,0,0,12.23a1.67,1.67,0,0,0,.54,1.16l6,5.53a3,3,0,0,0,.25.2,1.65,1.65,0,0,0,.6.24,1.58,1.58,0,0,0,.65,0,1.53,1.53,0,0,0,.6-.26,1.64,1.64,0,0,0,.45-.46L19.49,2.57a1.65,1.65,0,0,0,.24-.6,1.77,1.77,0,0,0,0-.65,1.69,1.69,0,0,0-.26-.6A1.64,1.64,0,0,0,19,.27Z"/></svg>