<svg width="154" height="38" viewBox="0 0 154 38" fill="none" xmlns="http://www.w3.org/2000/svg">
<path d="M121.803 11.1823V11.6954H119.23L123.714 22.2898L128.382 11.6954H125.332V11.1823H130.661V11.6954H128.971C127.598 14.6281 126.423 17.2554 125.442 19.5771C124.462 21.8988 123.61 23.9639 122.888 25.7724C122.165 27.5809 121.528 29.1756 120.976 30.5563C120.425 31.9372 119.904 33.153 119.414 34.2039C118.924 35.3037 118.372 36.1102 117.76 36.6234C117.147 37.1366 116.326 37.3932 115.297 37.3932C114.195 37.3932 113.254 37.1803 112.595 36.6051C112.244 36.2977 112.051 35.8832 112.007 35.4427C111.981 35.3204 111.967 35.1936 111.967 35.0636C111.967 34.0651 112.777 33.2545 113.776 33.2545C114.775 33.2545 115.586 34.0651 115.586 35.0636C115.586 35.3992 115.493 35.7136 115.334 35.983C115.337 36.2421 115.411 36.4373 115.554 36.5683C115.702 36.7028 115.873 36.77 116.069 36.77C116.51 36.77 116.921 36.6112 117.3 36.2935C117.681 35.9757 118.023 35.5786 118.33 35.102C118.636 34.6255 118.905 34.1183 119.138 33.5807C119.372 33.043 119.573 32.5542 119.745 32.1144L121.326 28.1919L114.415 11.6954H107.992L107.969 23.9761C107.969 24.3428 107.994 24.6848 108.043 25.0026C108.092 25.3203 108.185 25.6074 108.32 25.864C108.454 26.1207 108.65 26.3223 108.907 26.4689C109.164 26.6155 109.501 26.6889 109.918 26.6889C110.383 26.6889 110.781 26.5911 111.113 26.3956C111.443 26.2001 111.732 25.9496 111.976 25.644C112.222 25.3386 112.423 24.9904 112.583 24.5993C112.742 24.2083 112.871 23.8295 112.969 23.4629L113.52 23.5729C113.373 24.4038 113.122 25.0697 112.767 25.5708C112.411 26.0718 112.007 26.4567 111.553 26.7256C111.1 26.9943 110.616 27.1715 110.102 27.257C109.587 27.3426 109.097 27.3854 108.632 27.3854C107.357 27.3854 106.371 27.2387 105.673 26.9454C104.974 26.6523 104.46 26.2856 104.129 25.8457C103.798 25.4058 103.608 24.9292 103.559 24.4161C103.51 23.9028 103.485 23.4263 103.485 22.9864V11.6954H101.023V11.1823C101.023 11.1823 103.12 10.8719 105.085 9.11031C107.085 7.31586 107.576 4.4731 107.626 4.17793H107.992V11.1823H121.803ZM81.1584 18.7124V26.9053H81.751C81.8737 26.5609 82.0096 26.3333 82.1577 26.2226C82.3059 26.1119 82.5522 26.0565 82.8976 26.0565C83.1448 26.0565 83.5204 26.1303 84.0262 26.278C84.532 26.4256 85.1123 26.5794 85.7653 26.7393C86.4193 26.8992 87.1223 27.053 87.8753 27.2006C88.6274 27.3482 89.3861 27.4221 90.1505 27.4221C91.6801 27.4221 93.0682 27.1821 94.3138 26.7024C95.5595 26.2226 96.6324 25.5768 97.5336 24.7649C98.4338 23.9529 99.1302 23.0057 99.6238 21.9231C100.117 20.8406 100.364 19.6965 100.364 18.4909C100.364 17.2607 100.135 16.2273 99.6795 15.3909C99.2227 14.5543 98.6245 13.8408 97.8846 13.2503C97.1448 12.6599 96.2993 12.1739 95.35 11.7925C94.3997 11.4112 93.4259 11.0606 92.4265 10.7408C91.4272 10.4209 90.4534 10.1134 89.5031 9.81814C88.5529 9.52287 87.7083 9.17231 86.9685 8.76635C86.2287 8.36039 85.6304 7.8744 85.1737 7.30859C84.7169 6.74268 84.4895 6.02919 84.4895 5.16801C84.4895 4.6021 84.6245 4.04855 84.8962 3.50727C85.1671 2.966 85.5624 2.47397 86.0805 2.03102C86.5986 1.58817 87.2336 1.23146 87.9857 0.960825C88.7388 0.690186 89.6079 0.554868 90.5949 0.554868C91.8037 0.554868 92.8031 0.76398 93.592 1.18221C94.3818 1.60053 95.0357 2.14794 95.5538 2.82454C96.0719 3.50114 96.4975 4.25767 96.8296 5.09421C97.1627 5.93076 97.4779 6.77958 97.7733 7.64066H98.2545V0.62866H97.6629C97.5392 0.923929 97.4222 1.12691 97.3109 1.2376C97.2005 1.34829 96.9721 1.40368 96.6267 1.40368C96.3304 1.40368 96.0039 1.32989 95.6463 1.18221C95.2886 1.03462 94.8753 0.880804 94.4063 0.720949C93.9373 0.561 93.3947 0.407184 92.7776 0.259597C92.1614 0.112009 91.4461 0.0381228 90.6317 0.0381228C89.3493 0.0381228 88.1584 0.253465 87.061 0.684053C85.9625 1.11455 85.0198 1.68046 84.23 2.38168C83.4402 3.08291 82.824 3.8886 82.3795 4.79895C81.936 5.70929 81.7133 6.65653 81.7133 7.64066C81.7133 8.96933 81.9294 10.0764 82.3616 10.9622C82.7928 11.8479 83.3666 12.5922 84.0819 13.195C84.7971 13.7978 85.6115 14.2898 86.524 14.6712C87.4375 15.0526 88.3745 15.3847 89.337 15.6677C90.2986 15.9506 91.2366 16.2273 92.1491 16.498C93.0616 16.7686 93.876 17.1008 94.5913 17.4945C95.3066 17.8882 95.8803 18.3802 96.3116 18.9707C96.7438 19.5612 96.9598 20.3116 96.9598 21.2219C96.9598 21.714 96.8608 22.2861 96.6635 22.938C96.4663 23.59 96.1266 24.2113 95.6463 24.8017C95.165 25.3923 94.5054 25.8904 93.6665 26.2964C92.8276 26.7024 91.7547 26.9053 90.4468 26.9053C90.0769 26.9053 89.6758 26.8992 89.2446 26.8869C88.8124 26.8746 88.3556 26.8008 87.8753 26.6655C87.3941 26.5301 86.8883 26.3149 86.3579 26.0196C85.8276 25.7244 85.2784 25.2939 84.7113 24.728C84.1932 24.2358 83.7554 23.7008 83.3977 23.1225C83.0401 22.5443 82.7438 21.9785 82.5097 21.4249C82.2748 20.8713 82.0964 20.3547 81.9728 19.8748C81.8492 19.3951 81.7633 19.0076 81.7133 18.7124H81.1584ZM142.927 17.6276H153.77C153.77 16.3813 153.55 15.312 153.109 14.42C152.668 13.5279 152.104 12.8009 151.418 12.2388C150.732 11.6767 149.96 11.2613 149.102 10.9924C148.244 10.7236 147.388 10.5892 146.53 10.5892C145.329 10.5892 144.207 10.8275 143.166 11.304C142.125 11.7806 141.218 12.4038 140.446 13.1736C139.674 13.9434 139.067 14.8293 138.627 15.8314C138.186 16.8334 137.965 17.8598 137.965 18.9107C137.965 20.2304 138.198 21.4096 138.664 22.4483C139.129 23.487 139.772 24.3667 140.593 25.0877C141.414 25.8086 142.376 26.3585 143.479 26.7373C144.581 27.1161 145.77 27.3055 147.044 27.3055C148.123 27.3055 149.041 27.1528 149.8 26.8473C150.56 26.5418 151.198 26.163 151.712 25.7109C152.227 25.2588 152.631 24.7699 152.925 24.2445C153.219 23.7191 153.428 23.2241 153.55 22.7599L153.035 22.5765C153.011 22.7965 152.895 23.1387 152.686 23.603C152.478 24.0673 152.16 24.5378 151.73 25.0144C151.302 25.4909 150.751 25.9125 150.077 26.2791C149.402 26.6456 148.576 26.829 147.595 26.829C146.493 26.829 145.635 26.5968 145.023 26.1325C144.409 25.6681 143.944 25.0755 143.625 24.3545C143.307 23.6335 143.111 22.8271 143.037 21.935C142.964 21.043 142.927 20.1571 142.927 19.2773V17.6276ZM128.896 0.0107561L128.89 0.405865C128.89 0.405865 130.626 0.408695 131.247 0.662821C131.861 0.913549 131.838 1.73198 131.838 1.73198L131.82 26.6787H129.357V27.1919H138.39V26.6787H135.927V0L128.896 0.0107561ZM148.809 17.1144H142.927C142.951 16.479 142.995 15.813 143.056 15.1165C143.118 14.42 143.258 13.7723 143.479 13.1736C143.699 12.5748 144.036 12.08 144.49 11.6889C144.943 11.2979 145.586 11.1024 146.419 11.1024C147.007 11.1024 147.467 11.2368 147.797 11.5056C148.128 11.7744 148.367 12.1044 148.514 12.4954C148.662 12.8864 148.747 13.2775 148.772 13.6685C148.796 14.0595 148.809 14.3895 148.809 14.6582V17.1144ZM78.2284 13.9162C78.2284 12.99 77.4763 12.2381 76.5496 12.2381C75.6239 12.2381 74.8718 12.99 74.8718 13.9162C74.8718 14.8424 75.6239 15.5943 76.5496 15.5943C77.4763 15.5943 78.2284 14.8424 78.2284 13.9162Z" fill="#3E3E3E"/>
<path fill-rule="evenodd" clip-rule="evenodd" d="M32.9402 19.3167L38.5153 27.2179H43.661L37.6735 18.6429C41.2368 17.2246 43.7582 13.7425 43.7582 9.67632C43.7582 4.35223 39.4363 0.0303053 34.1122 0.0303053L22.594 0.0189819V27.1735H26.8065V19.3167H32.9402ZM58.0781 0.0227602C65.5735 0.0227602 71.6591 6.10837 71.6591 13.6048C71.6591 21.1011 65.5735 27.1868 58.0781 27.1868C50.5817 27.1868 44.4961 21.1011 44.4961 13.6048C44.4961 6.10837 50.5817 0.0227602 58.0781 0.0227602ZM11.4231 0.0303053L0 0.0189819L0 27.1735H4.11828V19.3167L11.4231 19.3224C16.7471 19.3224 21.07 15.0004 21.07 9.67632C21.07 4.35223 16.7471 0.0303053 11.4231 0.0303053ZM58.1611 4.13425C63.3956 4.13425 67.6448 8.38447 67.6448 13.618C67.6448 18.8524 63.3956 23.1017 58.1611 23.1017C52.9267 23.1017 48.6775 18.8524 48.6775 13.618C48.6775 8.38447 52.9267 4.13425 58.1611 4.13425ZM11.3268 4.02007L4.13148 4.01724V15.1939L11.3268 15.1976C14.4116 15.1976 16.9151 12.6932 16.9151 9.60933C16.9151 6.52453 14.4116 4.02007 11.3268 4.02007ZM34.015 4.02007L26.8206 4.01724V15.1939L34.015 15.1976C37.0998 15.1976 39.6043 12.6932 39.6043 9.60933C39.6043 6.52453 37.0998 4.02007 34.015 4.02007Z" fill="#3E3E3E"/>
</svg>
